# xmcd
#
# Track frame offsets: 
#        150
#        17987
#        36952
#        37254
#        54147
#        67152
#        67665
#        83379
#        103591
#        121308
#        139780
#        154233
#        175176
#
# Disc length: 2613 seconds
#
# Revision: 0
# Processed by: cddbd v1.5.2PL0 Copyright (c) Steve Scherf et al.
# Submitted via: ExactAudioCopy v0.99pb3
#
DISCID=a90a330d
DTITLE=Various Artist - Generation 88.2 (1998)
DYEAR=2007
DGENRE=Rap
TTITLE0=Fade - Au fond de nos coeurs
TTITLE1=IAM - L'empire du cote obscure
TTITLE2=Drop Rocca - interlude
TTITLE3=Generation 88.2 - Rocca
TTITLE4=Dj Cam feat Channel live - Broadcasting (live)
TTITLE5=Generation 88.2 - Jingle Dancehall
TTITLE6=Sean Paul - Infiltrate
TTITLE7=Zoro - Far away from home
TTITLE8=Lord Kossity - Garde la tête haute
TTITLE9=J-ro feat Helen Hagos - Gravity
TTITLE10=Form One - Slow Down
TTITLE11=Solano - RapLife
TTITLE12=Calvin Richardson - Lovin'You
EXTD=
EXTT0=
EXTT1=
EXTT2=
EXTT3=
EXTT4=
EXTT5=
EXTT6=
EXTT7=
EXTT8=
EXTT9=
EXTT10=
EXTT11=
EXTT12=
PLAYORDER=
